<svg width="121" height="125" viewBox="0 0 121 125" fill="none" xmlns="http://www.w3.org/2000/svg">
<path d="M2 0C40.94 0 79.88 0 120 0C120 41.25 120 82.5 120 125C81.06 125 42.12 125 2 125C2 83.75 2 42.5 2 0Z" fill="#6F63E6"/>
<path d="M37 21C40.3 21 43.6 21 47 21C47 25.95 47 30.9 47 36C64.82 36 82.64 36 101 36C101 31.05 101 26.1 101 21C104.3 21 107.6 21 111 21C111 52.35 111 83.7 111 116C101.43 116 91.86 116 82 116C82 108.74 82 101.48 82 94C76.39 94 70.78 94 65 94C65 101.26 65 108.52 65 116C55.76 116 46.52 116 37 116C37 84.65 37 53.3 37 21Z" fill="white"/>
<path d="M49 8C65.5 8 82 8 99 8C99 16.58 99 25.16 99 34C82.5 34 66 34 49 34C49 25.42 49 16.84 49 8Z" fill="white"/>
<path d="M25 72C28.3294 73.6961 30.4136 74.8968 32.1836 78.2265C33.1727 81.5865 33.0518 84.2046 32.75 87.6875C32.6623 88.8257 32.5747 89.964 32.4844 91.1367C32 94 32 94 30 96C27.69 96 25.38 96 23 96C23 102.6 23 109.2 23 116C22.01 116 21.02 116 20 116C19.67 109.73 19.34 103.46 19 97C17.02 96.67 15.04 96.34 13 96C10.3871 93.6912 10.0301 92.4283 9.78516 88.9414C9.87668 87.8263 9.9682 86.7113 10.0625 85.5625C10.1727 83.8938 10.1727 83.8938 10.2852 82.1914C12.039 74.3612 17.2966 71.2166 25 72Z" fill="white"/>
<path d="M67.5 96C71.46 96 75.42 96 79.5 96C79.5 102.27 79.5 108.54 79.5 115C75.54 115 71.58 115 67.5 115C67.5 108.73 67.5 102.46 67.5 96Z" fill="white"/>
<path d="M47 77C52.61 77 58.22 77 64 77C64 78.65 64 80.3 64 82C58.39 82 52.78 82 47 82C47 80.35 47 78.7 47 77Z" fill="#6F63E6"/>
<path d="M84 61C89.61 61 95.22 61 101 61C101 62.65 101 64.3 101 66C95.39 66 89.78 66 84 66C84 64.35 84 62.7 84 61Z" fill="#6F63E6"/>
<path d="M47 61C52.61 61 58.22 61 64 61C64 62.65 64 64.3 64 66C58.39 66 52.78 66 47 66C47 64.35 47 62.7 47 61Z" fill="#6F63E6"/>
<path d="M84 77C89.28 77 94.56 77 100 77C100 78.65 100 80.3 100 82C94.72 82 89.44 82 84 82C84 80.35 84 78.7 84 77Z" fill="#6F63E6"/>
<path d="M47 46C52.61 46 58.22 46 64 46C64 47.32 64 48.64 64 50C58.39 50 52.78 50 47 50C47 48.68 47 47.36 47 46Z" fill="#6F63E6"/>
<path d="M93 92C94.32 92 95.64 92 97 92C97 97.28 97 102.56 97 108C95.68 108 94.36 108 93 108C93 102.72 93 97.44 93 92Z" fill="#6F63E6"/>
<path d="M51 92C52.32 92 53.64 92 55 92C55 97.28 55 102.56 55 108C53.68 108 52.36 108 51 108C51 102.72 51 97.44 51 92Z" fill="#6F63E6"/>
<path d="M84 46C89.28 46 94.56 46 100 46C100 47.32 100 48.64 100 50C94.72 50 89.44 50 84 50C84 48.68 84 47.36 84 46Z" fill="#6F63E6"/>
</svg>
